<?xml version="1.0" encoding="UTF-8"?>
<svg width="213px" height="64px" viewBox="0 0 213 64" version="1.1" xmlns="http://www.w3.org/2000/svg" xmlns:xlink="http://www.w3.org/1999/xlink">
    <!-- Generator: Sketch 57.1 (83088) - https://sketch.com -->
    <title>Google Play Dark</title>
    <desc>Created with Sketch.</desc>
    <g id="Page-1" stroke="none" stroke-width="1" fill="none" fill-rule="evenodd">
        <g id="homepage" transform="translate(-390.000000, -672.000000)">
            <g id="Google-Play-Dark" transform="translate(390.000000, 672.000000)">
                <rect id="button" fill="#FFFFFF" x="0" y="0" width="213" height="64"></rect>
                <text id="Download-on" font-family="InterUI-Regular, Inter UI" font-size="15" font-weight="normal" letter-spacing="1.20000005" fill="#000000">
                    <tspan x="68.9278667" y="22">Download on</tspan>
                </text>
                <text id="Google-play" font-family="InterUI-Medium, Inter UI" font-size="24" font-weight="400" fill="#000000">
                    <tspan x="67" y="51">Google play</tspan>
                </text>
                <path d="M16,49.2637152 L16,14.7403058 C16,13.5355809 16.6984406,12.4942128 17.7119977,12 L37.6821408,31.9961212 L17.7039662,52 C16.6947493,51.5042845 16,50.4653329 16,49.2637152 Z M44.0177352,38.3396961 L22.1816563,50.9630792 L39.4032451,33.7192455 L44.0177352,38.3396961 Z M50.8052056,29.5817164 C51.531493,30.1383556 52,31.0154533 52,32.0020105 C52,32.9737429 51.5456901,33.839062 50.838062,34.3967166 L46.1998423,37.0781701 L41.1241465,31.9961212 L46.1963944,26.9172809 L50.8052056,29.5817164 Z M22.1944541,13.0418962 L44.0142873,25.6558361 L39.4032451,30.2727938 L22.1944541,13.0418962 Z" id="logo" fill="#000000" fill-rule="nonzero"></path>
            </g>
        </g>
    </g>
</svg>