
<svg width="1377px" height="704px" viewBox="0 0 1377 704" version="1.1" xmlns="http://www.w3.org/2000/svg" xmlns:xlink="http://www.w3.org/1999/xlink">
    <g id="Page-1" stroke="none" stroke-width="1" fill="none" fill-rule="evenodd">
        <g id="hanger" transform="translate(688.500000, 352.000000) scale(-1, 1) translate(-688.500000, -352.000000) ">
            <path d="M578.845833,272.276363 C594.826049,255.744053 594.854481,231.729096 619.815841,222.580536 C660.349618,207.723542 720.775626,216.429719 758.658658,229.357239 C786.692783,286.85099 812.891745,331.981998 856.531462,369.409203 C990.077629,483.944958 1256.10286,500.674959 1355,645 C1339.90169,592.212296 1291.28781,572.691566 1252.57494,543.344691 C1208.84992,526.779387 1177.79046,510.110569 1134.21709,491.389929 C1039.71577,450.786166 923.728945,412.398913 856.526758,351.337965 C813.953997,312.658994 790.78977,266.789112 763.206135,213.544917 C709.176944,203.022196 580.884849,185.64276 587.945528,247.42844 C585.546141,254.068686 569.627575,268.873929 578.845828,272.276363 L578.845833,272.276363 Z" id="svg_47"></path>
            <path d="M757.224201,635.41086 L830.435791,636 C956.453651,635.396763 1107.29896,631.692203 1227,635.707805 C1089.85116,550.192954 939.478269,470.192406 798.384407,391.37489 C778.895651,380.48759 755.424092,369.312771 741.689844,350.65353 C722.342819,359.914831 706.756558,326.857001 680.46444,328.030573 C503.516006,431.285612 319.036634,527.018543 143,631.17851 C375.117054,632.517022 584.480605,630.890986 757.224197,635.410869 L757.224201,635.41086 Z" id="svg_48"></path>
            <path d="M169.472716,528.447624 C222.422508,503.721705 273.79201,481.118806 323.907661,460.059518 C433.02464,414.198325 534.107646,374.212225 576,273.11907 C571.703846,280.960466 570.379041,291.794111 560.10228,293.636923 C565.311611,283.748453 578.720577,273.594015 571.4578,264 C477.618696,438.938487 219.015869,463.759381 62.7309081,571.767889 C40.2564593,587.303495 13.8643639,614.014667 15.0377714,647 C39.7502022,585.660124 108.616635,556.868655 169.472716,528.447624 Z" id="svg_49"></path>
            <path d="M47.5406554,671.126143 C43.5065494,671.453176 48.5231988,675.173788 49.8080538,671.126143 C179.253425,600.804542 307.395032,529.174841 433,455 C302.047747,524.563207 176.386108,599.444264 47.5406601,671.126143 L47.5406554,671.126143 Z" id="svg_50"></path>
            <path d="M687.636748,196 C692.491827,137.556534 647.296737,111.104355 634.567928,62.6086916 C635.149579,56.7586867 646.167097,40.8949276 636.87525,40 C618.329983,99.3808083 671.893983,121.235863 680.714714,166.608704 C683.065385,178.699637 676.277941,186.071024 687.636748,196 L687.636748,196 Z" id="svg_51"></path>
            <path d="M683.990737,12.1344877 C686.069277,11.2161591 700.01709,12.8267709 697.752121,9.87398657 C696.939824,8.80966258 684.1771,8.61186874 679.403565,9.87398657 C670.277041,12.2898971 652.702579,21.7839971 645,37 C652.339483,26.1072102 675.671775,15.8125067 683.990742,12.134483 L683.990737,12.1344877 Z" id="svg_52"></path>
            <path d="M748,47 C739.714804,29.0615516 722.746722,7.9277891 698,12.678305 C724.384861,14.9396086 735.141356,31.961918 748,47 Z" id="svg_53"></path>
            <path d="M795.025188,650.6677 C944.516462,647.653767 1077.18067,653.177744 1246.65272,648.341832 C1211.18763,636.198777 1169.70377,640.952251 1130.91016,641.36904 C1064.20221,642.081285 988.241488,642.265466 910.772441,641.029815 L911.164906,641.737253 L637.448998,639.416264 L636.092035,638.766939 C486.558157,640.346551 331.407424,639.614861 223.125739,636.717232 C185.774202,635.719068 137.817647,633.945521 121,646.020771 C375.382937,651.559314 617.945817,649.495041 792.760507,650.67258 C618.182162,656.167425 436.351011,651.462383 266.245518,652.993568 C261.706582,652.993568 257.167665,652.993568 252.628747,652.993568 C575.757462,659.57878 884.314345,658.914889 1258,655.319508 C1134.01171,650.139564 959.613073,656.768323 795.025188,650.6677 L795.025188,650.6677 Z" id="svg_54"></path>
            <path d="M499,423 C474.693079,432.459711 453.237959,444.651384 433,458 C453.905109,448.253455 490.724536,429.29513 499,423 Z" id="svg_55"></path>
            <path d="M249,653.515726 C224.468059,652.118664 211.108885,652.680675 181,651 C194.038063,660.894772 232.231396,656.173219 249,653.515726 Z" id="svg_56"></path>
            <path d="M1328.85312,647.494242 C1337.60652,650.076915 1341.76109,657.240498 1351.54019,658.80043 C1336.82661,621.441489 1303.42938,602.712543 1276.6727,577.366692 C1272.89157,577.366692 1269.10568,577.366692 1265.32917,577.366692 C1136.45683,478.457698 924.261392,463.795955 820.661559,339.838002 C795.554496,309.793447 778.085411,274.682569 759.406295,235.777811 C728.877936,220.220627 676.96227,217.666251 639.164607,228.991281 C649.402171,230.15535 658.798383,244.015933 666.38913,240.302181 C664.271675,237.889168 658.018546,239.599954 659.582984,233.515637 C678.441678,242.611479 699.739201,249.280164 711.763409,265.186138 C696.785153,260.492108 681.939234,243.685999 668.657828,244.8265 C674.556485,251.009806 686.410488,251.254885 689.076272,260.661753 C663.283845,257.273227 651.344742,226.653692 625.552319,228.991285 C607.922553,230.588935 592.807234,267.650946 582.446772,285.545742 C543.580895,352.685284 482.798313,401.110043 425.90565,432.587316 C426.004887,425.03731 444.641418,424.27381 439.517909,419.01426 C378.224857,450.5528 304.940734,476.944875 233.065094,507.239217 C144.80746,544.447356 34.3542589,586.919725 13,685.955967 C147.879684,611.690558 286.105696,539.291432 421.36823,461.995624 C469.351461,434.576171 522.358997,395.940023 577.909352,382.819408 C613.868451,362.120486 648.764058,340.361135 686.807583,321.740599 C721.996218,340.945536 759.704092,357.633814 791.168286,380.552503 C796.461995,380.552503 801.755633,380.552503 807.049276,380.552503 C991.689378,485.24896 1175.17621,591.095338 1360.61511,695 C1368.70688,668.235528 1339.13794,663.089096 1328.85314,647.494247 L1328.85312,647.494242 Z" id="svg_57"></path>
            <path d="M558,385 C537.004872,395.305563 516.534541,406.15067 499,420 C519.593252,409.290965 540.399273,398.795814 558,385 Z" id="svg_58"></path>
            <path d="M121,650.207626 C129.722167,656.476512 164.92551,649.814564 180,652.657991 C167.467417,640.77361 132.037922,651.509419 121,650.207626 Z" id="svg_59"></path>
            <path d="M1357.82439,617.822091 C1334.83852,583.706847 1285.71742,560.495398 1257.96034,536.402668 C1225.53133,529.131947 1197.52358,512.993209 1169.43546,500.209402 C1139.76797,486.709397 1110.45988,475.687933 1080.91535,464.020914 C991.151595,428.581589 905.605784,388.47264 844.861729,326.052149 C823.842899,304.452125 805.547854,277.885642 792.657519,253.675102 C784.84108,238.987665 778.821547,212.755695 767.690313,206.177677 C748.747402,194.981858 713.859556,205.046795 695.058424,197.130556 C712.658416,134.568708 643.809455,112.078093 647.39381,61.4236067 C650.859836,12.4748622 707.882514,13.5727645 731.374404,41.0675541 C739.011179,50.006312 743.616872,74.1838206 765.420586,65.9471671 C772.943864,53.1351113 757.353557,38.9989702 749.532356,29.758646 C739.777157,18.2329837 727.955561,6.64605533 713.216447,2.61725512 C675.415698,-7.71154725 630.990117,12.9696271 626.96606,56.9000368 C621.041047,121.577594 685.213394,124.9844 676.900471,197.130556 C648.348981,204.53789 613.527293,195.53788 597.459371,206.177677 C587.58595,212.717998 572.9792,253.552584 563.413151,269.507584 C550.674199,290.758926 533.570728,314.121255 520.287993,328.313945 C449.982579,403.414532 341.134067,433.10515 238.839438,477.591595 C202.197214,493.527719 164.997017,512.526717 127.621864,531.87907 C77.2098455,557.974358 21.4970284,583.344034 5.05554808,633.659314 C0.639009314,647.164027 -6.27899333,680.694944 11.8647968,696.989236 C37.9999762,704.076145 62.5416093,667.199646 91.3059164,660.796002 C105.524932,657.634195 131.579729,660.796002 154.858811,660.796002 C180.464393,660.796002 207.881038,660.796002 234.299931,660.796002 C484.856291,660.796002 832.250413,663.057766 1135.39397,663.057766 C1187.28135,663.057766 1246.17179,656.927416 1285.1972,665.314855 C1313.67307,671.44046 1332.69643,707.223788 1366.90807,703.765103 C1387.65748,675.563496 1372.25159,639.228911 1357.8244,617.822086 L1357.82439,617.822091 Z M747.267395,47.8575715 C734.424399,32.0015332 723.685676,14.0580582 697.328222,11.6690503 C722.044838,6.66014435 738.992278,28.9434147 747.267395,47.8575715 Z M676.900542,9.40726776 C681.624419,8.14443445 694.249874,8.34234042 695.058495,9.40726776 C697.299864,12.361726 683.497012,10.7502012 681.439992,11.6690503 C673.202756,15.3538711 650.112763,25.6544059 642.85436,36.5486633 C650.481611,21.3240347 667.868824,11.8198358 676.900542,9.40727247 L676.900542,9.40726776 Z M638.314834,41.0722191 C647.455288,41.9628007 636.617282,57.8376871 636.045107,63.6900401 C648.566518,112.200574 693.025213,138.668146 688.249241,197.135212 C677.07075,187.197519 683.752358,179.827863 681.439992,167.732048 C672.762984,122.336173 620.071738,100.477005 638.314834,41.0722191 L638.314834,41.0722191 Z M765.425348,212.967695 C792.927156,266.279771 816.031216,312.20814 858.484988,350.936427 C925.499237,412.075227 1041.16176,450.511423 1135.39873,491.166956 C1178.84548,509.916172 1209.82283,526.60628 1253.42564,543.187959 C1292.03011,572.567577 1340.50818,592.11787 1355.56412,644.972878 C1256.94369,500.463824 991.662293,483.712492 858.489679,369.030706 C814.972006,331.555782 788.846237,286.367232 760.890588,228.800177 C723.113506,215.856175 662.856411,207.138897 622.436062,222.014834 C597.544472,231.175054 597.516119,255.220634 581.580594,271.774023 C572.388121,268.36725 588.262169,253.543131 590.65957,246.894419 C583.609217,185.029963 711.547257,202.42685 765.425348,212.967695 Z M64.069002,572.591086 C220.260665,465.434471 478.713842,440.809323 572.492198,267.250462 C579.750639,276.768816 566.349678,286.843177 561.143456,296.653659 C571.409321,294.825385 572.738092,284.081885 577.031686,276.297616 C535.164341,376.593518 434.141683,416.264237 325.089839,461.763792 C275.00883,482.661711 223.66527,505.081645 170.747088,529.612528 C109.922608,557.809423 41.1020103,586.378582 16.4043369,647.225217 C15.2316298,614.500089 41.6079698,587.999498 64.069002,572.591081 L64.069002,572.591086 Z M50.4505188,672.109566 C49.1690578,676.133673 44.1425153,672.434697 48.1807819,672.109566 C177.159117,600.844529 302.950359,526.398917 434.037672,457.240231 C308.303159,530.983739 180.029391,602.196901 50.4505141,672.109566 L50.4505188,672.109566 Z M681.439997,328.31862 C702.652631,333.478316 710.809565,336.281956 739.796137,355.346922 C762.025414,369.930712 779.956444,380.763689 799.462077,391.643796 C940.673362,470.443359 1091.17655,550.42564 1228.44892,635.921007 C1108.64407,631.90639 957.668131,635.614785 831.541216,636.213211 L758.266227,635.624205 C585.377733,631.105352 375.82811,632.735687 143.505398,631.397484 C319.703925,527.261255 504.343052,431.550132 681.439997,328.31862 Z M436.307404,457.240231 C455.099008,444.300941 475.020785,432.483112 497.590552,423.313469 C489.906515,429.41556 455.718478,447.792553 436.307404,457.240231 Z M502.130078,421.046998 C519.668598,407.617636 540.143573,397.10979 561.143466,387.120236 C543.538745,400.493011 522.728003,410.666344 502.130078,421.046998 Z M123.082409,651.748816 C133.698207,652.950411 167.77277,643.036245 179.826069,654.010579 C165.328073,651.386007 131.471013,657.535195 123.082409,651.748816 Z M182.095815,649.491726 C212.240885,650.999614 225.622941,650.500128 250.188217,651.748816 C233.396827,654.133097 195.151595,658.369237 182.095815,649.491726 Z M254.727705,651.748816 C259.267193,651.748816 263.8067,651.748816 268.346188,651.748816 C438.473125,650.259762 620.327099,654.830457 794.927322,649.491726 C620.095414,648.346718 377.502076,650.354026 123.082413,644.968203 C139.902185,633.225763 187.864764,634.950358 225.221011,635.921012 C333.516273,638.738849 488.68655,639.450373 638.239228,637.914227 L639.596286,638.545655 L913.346608,640.802744 L912.954164,640.114734 C990.43288,641.316329 1066.39846,641.141969 1133.11956,640.44461 C1171.91804,640.039379 1213.40713,635.421596 1248.87668,647.225222 C1079.38332,651.92785 946.707189,646.556121 797.192359,649.487057 C961.801012,655.419462 1136.21681,648.973401 1260.22062,654.010579 C886.492742,657.506937 577.897027,658.157204 254.727705,651.748816 L254.727705,651.748816 Z M1360.0942,692.465571 C1174.57083,588.579085 991.000364,482.751188 806.276097,378.073077 C800.980046,378.073077 795.683923,378.073077 790.387796,378.073077 C758.914022,355.15836 721.184198,338.468294 685.979452,319.271424 C647.918732,337.88874 613.007143,359.644247 577.031658,380.339548 C521.45598,393.457906 468.424282,432.082551 420.419179,459.501952 C285.095025,536.779533 146.805992,609.170702 11.8648015,683.42312 C33.2287801,584.404202 143.732335,541.939192 232.030194,504.737594 C303.938621,474.448551 377.256144,448.065805 438.577174,416.528069 C443.703018,421.786737 425.062716,422.550066 424.95871,430.098788 C481.88203,398.627022 542.687562,350.210734 581.57115,283.082898 C591.93633,265.191269 607.058473,228.135722 624.696346,226.538333 C650.500531,224.201168 662.445076,254.815323 688.249255,258.203294 C685.582251,248.798039 673.72285,248.553003 667.821505,242.370811 C681.108969,241.23051 695.96165,258.033679 710.946663,262.726855 C698.917049,246.823696 677.609819,240.151437 658.742528,231.061913 C657.177377,237.145151 663.438047,235.434683 665.551777,237.847256 C657.95757,241.565066 648.557008,227.702218 638.314773,226.538333 C676.129736,215.215284 728.069072,217.769214 758.611342,233.323691 C777.298973,272.221625 794.771254,307.326398 819.894528,337.365698 C923.54151,461.306643 1135.83382,475.961109 1264.76483,574.85284 C1268.54783,574.85284 1272.33545,574.85284 1276.11354,574.85284 C1302.88241,600.194257 1336.29501,618.924602 1351.0153,656.272334 C1341.23636,654.712604 1337.07513,647.545599 1328.31775,644.968123 C1338.612,660.560315 1368.19442,665.705847 1360.0942,692.465571 L1360.0942,692.465571 Z" id="svg_60" fill="#FFFFFF" fill-rule="nonzero"></path>
        </g>
    </g>
</svg>
