<?xml version="1.0" standalone="no"?>
<!DOCTYPE svg PUBLIC "-//W3C//DTD SVG 20010904//EN"
 "http://www.w3.org/TR/2001/REC-SVG-20010904/DTD/svg10.dtd">
<svg version="1.0" xmlns="http://www.w3.org/2000/svg"
 width="1024.000000pt" height="1024.000000pt" viewBox="0 0 1024.000000 1024.000000"
 preserveAspectRatio="xMidYMid meet">
<metadata>
Created by potrace 1.11, written by Peter Selinger 2001-2013
</metadata>
<g transform="translate(0.000000,1024.000000) scale(0.100000,-0.100000)"
fill="#000000" stroke="none">
<path d="M3898 8795 c-2 -2 -41 -6 -88 -9 -47 -4 -101 -9 -120 -12 -321 -48
-560 -119 -793 -236 -123 -61 -211 -116 -390 -241 -76 -53 -164 -106 -195
-117 -70 -27 -87 -41 -106 -94 -22 -58 -25 -96 -15 -152 23 -121 116 -234 251
-305 64 -33 91 -41 148 -44 121 -7 188 20 465 194 179 112 313 177 475 231
236 79 415 100 532 62 58 -18 122 -71 147 -121 53 -103 51 -313 -4 -444 -57
-136 -213 -295 -434 -441 -161 -107 -302 -185 -742 -409 -248 -126 -281 -146
-341 -209 -99 -104 -102 -234 -6 -288 40 -23 107 -26 158 -8 14 5 48 11 75 12
28 1 131 26 231 54 166 47 260 71 339 87 71 14 203 17 256 6 297 -62 345 -484
124 -1076 -56 -150 -144 -316 -205 -389 -187 -223 -496 -393 -832 -456 -251
-48 -523 -25 -703 61 -106 50 -187 108 -405 290 -135 113 -184 145 -240 158
-58 13 -101 -2 -153 -53 -122 -118 -160 -258 -108 -397 21 -54 73 -142 101
-171 8 -8 29 -31 47 -51 161 -184 616 -422 888 -464 63 -10 339 -10 425 -1
302 34 681 153 958 300 438 233 768 609 964 1098 82 204 145 463 163 665 5 67
6 314 1 345 -3 14 -7 44 -10 66 -22 177 -110 330 -233 407 -23 15 -72 39 -108
53 l-66 27 64 43 c185 124 355 364 442 627 153 461 78 928 -189 1180 -97 91
-239 167 -361 192 -5 2 -37 8 -70 15 -49 11 -328 22 -337 15z"/>
<path d="M7918 8695 c-1 -1 -25 -6 -53 -9 -187 -25 -386 -104 -622 -249 -49
-30 -122 -74 -163 -97 -246 -141 -465 -312 -666 -520 -174 -180 -362 -433
-470 -632 -17 -31 -35 -63 -41 -70 -17 -20 -155 -300 -211 -428 -134 -305
-369 -946 -433 -1180 -7 -25 -14 -49 -15 -55 -2 -5 -6 -23 -9 -40 -3 -16 -10
-46 -15 -65 -10 -41 -36 -216 -41 -280 -8 -96 -2 -359 10 -430 47 -280 152
-499 304 -636 28 -25 92 -65 144 -90 224 -107 407 -117 636 -37 56 19 153 50
215 69 400 118 701 285 1032 571 410 354 798 900 1075 1513 123 272 221 581
251 795 7 50 15 102 19 120 20 95 28 566 12 710 -26 238 -96 504 -154 588
-113 164 -542 423 -733 443 -25 3 -50 7 -57 9 -6 2 -13 2 -15 0z m-23 -680
c198 -52 335 -246 371 -525 6 -42 6 -293 1 -330 -3 -19 -9 -57 -12 -85 -14
-108 -50 -253 -101 -415 -63 -197 -228 -547 -370 -787 -98 -165 -119 -199
-124 -203 -3 -3 -35 -50 -72 -105 -163 -242 -368 -478 -574 -660 -43 -38 -83
-75 -87 -82 -6 -10 -12 -10 -25 -2 -21 13 -77 -12 -127 -56 -50 -45 -143 -105
-211 -137 -115 -54 -210 -44 -383 38 -163 77 -208 119 -247 234 -20 60 -26
231 -11 325 24 149 90 345 189 555 17 36 36 81 43 100 11 30 116 269 198 452
141 310 342 703 460 893 95 154 193 296 255 368 53 60 298 303 327 323 143 99
346 139 500 99z"/>
<path d="M2103 3033 c-7 -3 -13 -15 -13 -27 0 -43 -89 -311 -152 -456 -10 -25
-23 -54 -28 -65 -4 -11 -17 -40 -28 -65 -131 -298 -178 -475 -175 -659 2 -160
82 -296 200 -343 69 -27 151 6 248 100 53 52 106 110 134 150 25 36 41 34 41
-6 0 -32 46 -125 81 -166 28 -34 81 -68 127 -84 45 -15 76 -2 172 75 263 209
636 656 767 918 60 120 74 168 74 256 -1 94 -33 163 -115 244 -59 58 -157 125
-184 125 -4 0 -7 -66 -8 -147 0 -114 -5 -171 -22 -248 -53 -237 -141 -447
-270 -644 -91 -138 -231 -299 -251 -287 -15 10 -30 97 -26 147 10 101 38 221
70 294 50 116 135 339 145 382 34 149 -29 256 -178 299 -77 23 -86 19 -94 -49
-7 -58 -91 -287 -157 -432 -21 -44 -44 -96 -52 -115 -73 -176 -226 -449 -285
-510 -21 -21 -26 -23 -34 -10 -5 8 -10 26 -11 40 -9 142 50 341 204 686 25 55
51 121 57 145 11 40 15 151 7 189 -12 59 -44 125 -78 164 -54 62 -135 110
-166 99z"/>
<path d="M4400 3029 c-252 -34 -556 -269 -769 -594 -40 -61 -139 -250 -162
-310 -13 -33 -49 -150 -53 -171 -2 -10 -9 -39 -16 -64 -17 -63 -20 -228 -5
-292 26 -114 88 -192 190 -239 79 -38 141 -48 250 -44 259 11 511 159 710 419
28 36 52 65 55 65 3 1 5 -36 6 -82 1 -139 44 -220 141 -264 102 -47 216 -37
329 28 63 36 197 164 241 231 l28 42 6 -105 c16 -243 109 -335 285 -279 123
39 306 178 445 338 l46 53 0 -73 c0 -101 25 -177 80 -238 50 -56 94 -74 163
-68 76 8 97 32 194 229 155 318 265 504 423 716 131 176 247 283 307 283 27 0
47 -43 41 -89 -9 -73 -39 -111 -141 -178 -18 -12 -18 -13 -1 -27 26 -20 150
-39 217 -33 97 8 200 71 269 161 l22 30 -7 -65 c-14 -118 -6 -241 21 -339 9
-30 22 -84 29 -119 14 -62 14 -63 -7 -69 -12 -3 -61 -25 -108 -49 -103 -51
-181 -124 -224 -209 -26 -52 -30 -69 -30 -144 0 -76 3 -90 29 -134 102 -169
387 -204 571 -68 140 102 204 244 206 454 l1 67 81 -4 c45 -2 97 -7 116 -9 42
-7 81 13 104 53 17 30 17 30 -5 45 -29 18 -125 43 -203 52 -33 4 -67 8 -75 10
-8 1 -20 3 -25 3 -6 1 -11 11 -12 24 0 24 -11 109 -17 142 -2 11 -7 40 -11 65
-4 25 -9 54 -12 65 -8 39 -4 143 7 186 25 90 86 169 188 237 33 23 62 48 65
55 8 22 -58 121 -101 151 -146 101 -343 35 -470 -156 l-27 -42 -7 61 c-10 92
-47 148 -126 187 -177 90 -486 -124 -766 -529 -39 -55 -72 -102 -76 -105 -9
-8 -142 -217 -211 -332 -35 -59 -65 -105 -66 -104 -2 1 11 30 27 64 17 34 30
64 30 67 0 3 21 42 46 87 26 46 56 100 68 122 11 21 58 95 103 165 148 226
177 302 167 427 -9 100 -49 171 -124 219 -54 34 -78 37 -95 12 -8 -12 -15 -28
-15 -36 0 -56 -302 -564 -512 -863 -118 -166 -291 -361 -373 -418 -54 -37
-106 -51 -128 -35 -29 21 -28 135 2 210 5 11 19 47 31 80 98 257 320 584 593
876 43 45 77 85 77 89 0 15 -27 17 -205 15 -111 0 -188 -5 -200 -12 -11 -6
-43 -36 -71 -66 l-52 -54 -6 39 c-9 58 -40 111 -82 143 -94 71 -217 63 -399
-26 -127 -62 -214 -127 -340 -254 -137 -137 -234 -275 -344 -490 -22 -44 -52
-93 -66 -110 -14 -16 -60 -75 -104 -130 -208 -265 -412 -411 -585 -420 -102
-5 -179 37 -203 110 -15 48 -5 130 27 226 36 107 106 249 123 249 27 1 96 11
167 25 173 34 310 103 415 209 131 133 190 301 162 461 -25 143 -122 213 -267
194z m110 -297 c69 -56 -24 -204 -188 -301 -77 -46 -141 -68 -226 -76 l-58 -6
20 28 c90 126 221 269 292 318 37 26 102 54 126 55 7 0 22 -8 34 -18z m1215
12 c23 -9 43 -54 38 -88 -22 -153 -451 -778 -628 -916 -40 -31 -117 -58 -144
-51 -23 7 -26 13 -27 57 -2 86 67 239 209 459 237 367 451 577 552 539z m2049
-1086 c-15 -159 -67 -225 -185 -235 -70 -6 -79 0 -79 60 0 58 25 95 98 146 25
17 151 78 169 81 1 0 -1 -24 -3 -52z"/>
</g>
</svg>
